<?xml version="1.0" encoding="UTF-8"?>
<svg version="1.1" viewBox="0 0 45 45" width="45px" height="45px" xmlns="http://www.w3.org/2000/svg" xmlns:xlink="http://www.w3.org/1999/xlink">
<title>under_construction</title>
<defs>
<polygon id="a" points="0 0 43.296 0 43.296 38.189 0 38.189"/>
</defs>
<g fill="none" fill-rule="evenodd">
<polygon points="3 39.811 22.5 4.8106 43 39.811" fill="#fff"/>
<g transform="translate(1 3.8106)">
<mask id="b" fill="white">
<use xlink:href="#a"/>
</mask>
<path d="m38.762 34.354h-34.223l17.142-29.581 17.081 29.581zm-35.833 3.8361c-1.058 0.009863-2.02-0.52814-2.537-1.4441-0.528-0.914-0.528-2.007 0.025-2.921l18.763-32.406c0.518-0.877 1.454-1.419 2.477-1.419 1.009 0 1.947 0.542 2.463 1.419l18.813 32.443c0.492 0.889 0.482 1.957-0.024 2.836-0.518 0.903-1.491 1.455-2.539 1.441l-37.441 0.051137z" fill="#E3000F" mask="url(#b)"/>
</g>
<g transform="translate(8.2926 17.814)">
<path d="m11.504 3.643h0.276 0.289l0.096 0.096c0.011 0.096 0.024 0.192 0.047 0.289l-0.192 0.192c-0.083 0.108-0.18 0.216-0.276 0.324s-0.192 0.217-0.289 0.337c-0.072 0.18-0.156 0.372-0.24 0.565v0.565c0.024 0.204 0.06 0.408 0.096 0.625 0.048 0.324 0.096 0.649 0.144 0.986 0.061 0.301 0.12 0.601 0.193 0.9-0.012 0.049-0.025 0.098-0.048 0.145-0.061 0.133-0.12 0.276-0.193 0.421-0.096 0.204-0.192 0.409-0.288 0.625-0.109 0.203-0.216 0.409-0.325 0.612-0.048 0.23-0.096 0.47-0.144 0.711-0.048 0.155-0.096 0.312-0.143 0.468-0.013 0.192-0.025 0.384-0.049 0.578-0.517 0.312-1.035 0.624-1.563 0.937-0.048-0.109-0.096-0.217-0.144-0.325-0.036-0.048-0.084-0.095-0.132-0.144-0.025-0.024-0.061-0.061-0.096-0.096-0.073-0.012-0.157-0.023-0.241-0.049-0.108-0.048-0.216-0.096-0.337-0.143-0.072-0.024-0.144-0.061-0.228-0.096-0.048-0.061-0.096-0.121-0.144-0.181-0.048-0.097-0.096-0.193-0.145-0.289-0.095-0.132-0.191-0.276-0.287-0.421-0.085-0.096-0.181-0.192-0.278-0.288-0.143-0.048-0.288-0.095-0.432-0.144h-0.373c-0.119-0.048-0.252-0.097-0.384-0.146-0.156-0.01-0.313-0.021-0.469-0.047-0.18 0.012-0.373 0.026-0.565 0.047-1.539 2.767-3.089 5.532-4.64 8.296h10.698c-0.096-0.458-0.191-0.914-0.289-1.382-0.119-0.506-0.239-1.01-0.372-1.515-0.193-0.517-0.385-1.035-0.577-1.563-0.132-0.264-0.276-0.528-0.42-0.804 0.517-0.314 1.033-0.625 1.562-0.939h0.517c0.096-0.012 0.192-0.023 0.288-0.049 0.132-0.058 0.277-0.119 0.421-0.191 0.073-0.061 0.156-0.119 0.241-0.193 0.012-0.048 0.023-0.095 0.048-0.144v-0.228c0.613-0.397 1.225-0.794 1.851-1.19-0.205 0.469-0.409 0.938-0.626 1.418v0.528c-0.036 0.662-0.084 1.323-0.132 1.984-0.048 1.083-0.096 2.175-0.144 3.27-0.396 0.133-0.793 0.277-1.19 0.421-0.108 0.06-0.216 0.119-0.324 0.191-0.048 0.012-0.097 0.026-0.145 0.049v0.193 0.095c0.061 0.012 0.12 0.026 0.193 0.049h3.45c0.324-1.67 0.661-3.342 0.997-5.024h-0.145v-0.614c0.578-1.021 1.168-2.043 1.755-3.077 0.061 0.361 0.121 0.721 0.194 1.095 0.035 0.166 0.084 0.335 0.131 0.515 0.072 0.169 0.157 0.337 0.241 0.517 0.109 0.205 0.217 0.409 0.337 0.614 0.072 0.168 0.144 0.347 0.228 0.529 0.109 0.132 0.216 0.276 0.337 0.421 0.119 0.12 0.239 0.251 0.372 0.384 0.216 0.18 0.445 0.372 0.674 0.564 0.589 0.505 1.191 1.01 1.789 1.516 0.267 0.214 0.53 0.432 0.807 0.661 0.023 0.059 0.059 0.12 0.095 0.192-0.011 0.096-0.023 0.192-0.048 0.288-0.024 0.073-0.059 0.145-0.096 0.229-0.047 0.107-0.096 0.218-0.143 0.337-0.253 0.253-0.505 0.504-0.757 0.757v0.096h1.19c0.084-0.049 0.18-0.096 0.275-0.144 0.097-0.024 0.193-0.061 0.288-0.096 0.049-0.097 0.097-0.192 0.146-0.288 0.36-0.59 0.721-1.191 1.094-1.792 0.071-0.192 0.143-0.386 0.227-0.577-0.168-0.061-0.337-0.12-0.516-0.181-0.097-0.061-0.193-0.119-0.289-0.191-0.072-0.073-0.144-0.157-0.229-0.242-0.372-0.421-0.757-0.841-1.142-1.274-0.504-0.576-1.009-1.165-1.514-1.754-0.06 0.047-0.12 0.096-0.193 0.145-0.107-0.11-0.216-0.217-0.323-0.337-0.06-0.073-0.121-0.145-0.193-0.229-0.024-0.108-0.061-0.216-0.096-0.337-0.023-0.264-0.06-0.529-0.097-0.804-0.023-0.326-0.06-0.663-0.095-0.999-0.084-0.324-0.18-0.648-0.278-0.985-0.071-0.218-0.155-0.432-0.239-0.662-0.096-0.253-0.192-0.505-0.29-0.758 0.072-0.058 0.157-0.119 0.241-0.191 0.11 0.06 0.217 0.121 0.337 0.191 0.024-0.023 0.049-0.058 0.084-0.094 0.096-0.06 0.192-0.121 0.288-0.194 0.073-0.047 0.156-0.096 0.24-0.142 0.061-0.073 0.121-0.157 0.194-0.242 0.036-0.036 0.083-0.084 0.132-0.132-0.012-0.096-0.024-0.192-0.049-0.288-0.024-0.049-0.047-0.097-0.083-0.144-0.061-0.062-0.121-0.121-0.194-0.192-0.046-0.026-0.095-0.061-0.142-0.098-0.061-0.215-0.121-0.432-0.194-0.661-0.047-0.312-0.096-0.624-0.143-0.937-0.025-0.096-0.049-0.192-0.084-0.288-0.098-0.228-0.192-0.469-0.29-0.709-0.096-0.218-0.191-0.433-0.288-0.662-0.084-0.156-0.18-0.312-0.277-0.48-0.167-0.157-0.347-0.313-0.528-0.47-0.133-0.107-0.277-0.216-0.421-0.336-0.156-0.036-0.313-0.085-0.481-0.132-0.168-0.012-0.335-0.024-0.517-0.048h-0.517c-0.157 0.012-0.312 0.024-0.468 0.048-0.156 0.036-0.314 0.084-0.482 0.132-0.407 0.145-0.816 0.289-1.225 0.432-0.265 0.121-0.529 0.241-0.806 0.374-0.167 0.095-0.348 0.191-0.529 0.288-0.059-0.024-0.12-0.06-0.18-0.097v-0.144 0.048c0.096-0.276 0.048-0.239 0.048-0.516 0-0.95-0.805-1.804-1.803-1.804s-1.802 0.854-1.802 1.804c0 0.997 0.804 1.839 1.802 1.839 0.048-0.012 0.097-0.024 0.145-0.036-0.013 0.012-0.025 0.024-0.048 0.036" fill="#1A1A18"/>
<polygon points="17.081 3.2827 17.418 3.1857 17.741 3.2337 18.127 3.2827 18.355 3.4147 18.595 3.7507 18.835 4.5087 19.016 4.8817 19.497 6.4447 19.16 6.7197 17.032 3.3667" fill="#fff"/>
<polygon points="13.247 6.7803 13.583 7.0693 14.34 7.9093 14.822 8.5713 14.34 9.6663 11.924 11.071 13.067 9.3763 13.247 9.1343" fill="#fff"/>
</g>
</g>
</svg>
