<svg width="265" height="80" viewBox="0 0 265 80" xmlns="http://www.w3.org/2000/svg"><path d="M2.008 20.203a1219.845 1219.845 0 0 1 4.547-.187c.625-.063 1.25-.11 1.875-.141.625-.031 1.234-.063 1.828-.094.687-.031 1.36-.054 2.015-.07a77.145 77.145 0 0 1 1.829-.023c.593-.032 1.14-.04 1.64-.024s.938.04 1.313.07c.656-.062 1.343-.132 2.062-.21a33.359 33.359 0 0 1 2.156-.165 68.694 68.694 0 0 1 2.555-.14c.86-.032 1.695-.032 2.508 0 .812 0 1.61.047 2.39.14.782.094 1.547.22 2.297.375.782.157 1.54.352 2.274.586.734.235 1.445.524 2.133.867.343.188.687.399 1.03.633.345.235.665.5.962.797.297.297.57.617.82.961s.469.719.656 1.125c.157.406.282.828.375 1.266.094.437.125.906.094 1.406 0 .469-.062.977-.187 1.523a7.426 7.426 0 0 1-.61 1.665 5.346 5.346 0 0 1-.586 1.054 5.637 5.637 0 0 1-.82.914 6.45 6.45 0 0 1-.937.774c-.344.234-.704.46-1.079.68-.406.218-.836.43-1.289.632a36.49 36.49 0 0 1-1.382.586 46.58 46.58 0 0 0-1.055.399c-.36.14-.711.273-1.055.398.25.219.5.43.75.633s.485.414.703.633c.313.25.625.523.938.82.312.297.625.586.937.867.532.5 1.063 1.008 1.594 1.524a48.619 48.619 0 0 1 1.547 1.57 82.2 82.2 0 0 0 1.148 1.219c.391.406.79.828 1.196 1.265.312.344.632.688.96 1.032.329.343.65.687.962 1.03a64.228 64.228 0 0 0 2.015 2.11 10.14 10.14 0 0 0 1.922 1.195c.688.329 1.36.586 2.016.774a9.076 9.076 0 0 0 1.851.258c.578.015 1.07-.055 1.477-.211a23.96 23.96 0 0 0 1.664-.82 24.44 24.44 0 0 0 1.617-.962 47.682 47.682 0 0 0 1.594-1.078 18.81 18.81 0 0 0 1.594-1.265c.093.062.195.11.304.14.11.032.211.063.305.094s.195.07.305.117a3.7 3.7 0 0 0 .304.117 6.542 6.542 0 0 1-.937 1.524 7.993 7.993 0 0 1-1.219 1.195 7.347 7.347 0 0 1-1.875 1.055c-.687.266-1.375.477-2.062.633-.5.125-1.024.226-1.57.304-.548.079-1.055.149-1.524.211-.625.032-1.203.063-1.735.094-.53.031-.968.078-1.312.14-.375.157-.781.298-1.219.423a9.33 9.33 0 0 1-1.406.28c-.5.032-1.008.048-1.524.048-.515 0-1.039-.032-1.57-.094a10.721 10.721 0 0 1-1.687-.328 11.952 11.952 0 0 1-1.594-.563 11.86 11.86 0 0 1-1.078-.609 7.327 7.327 0 0 1-.89-.656c-.282-.282-.579-.57-.891-.867a18.353 18.353 0 0 1-.938-.961 30.708 30.708 0 0 1-.96-1.008c-.329-.36-.65-.711-.962-1.055l-1.125-1.219-1.125-1.218a52.874 52.874 0 0 1-.844-.961 16.222 16.222 0 0 0-.843-.914 28.58 28.58 0 0 0-.938-.985l-.937-.937a41.204 41.204 0 0 0-.844-.82 6.436 6.436 0 0 0-.844-.68c-.531-.438-1.015-.766-1.453-.985-.437-.218-.828-.297-1.172-.234a47.528 47.528 0 0 0-1.219-.188l-.656-.093-.656-.094c-.406 0-.742.023-1.008.07-.266.047-.398.18-.398.399V50.39l-8.39 1.829v-2.742c0-.922-.017-1.852-.048-2.79 0-.937-.008-1.867-.023-2.789-.016-.921-.024-1.836-.024-2.742a193.746 193.746 0 0 1-.093-5.906v-5.203a25.422 25.422 0 0 0-.329-1.266l-.375-1.312a28.781 28.781 0 0 0-.632-1.711 11.306 11.306 0 0 0-.774-1.57 7.431 7.431 0 0 0-1.828-2.25 4.295 4.295 0 0 0-1.148-.704 4.175 4.175 0 0 0-1.29-.28c0-.126-.015-.25-.046-.376a1.541 1.541 0 0 1-.047-.375Zm14.015 1.219c.063.625.118 1.265.164 1.922.047.656.102 1.297.165 1.922.062.5.109.992.14 1.476.031.485.078.977.14 1.477.032.531.071 1.07.118 1.617a55.6 55.6 0 0 1 .117 1.664l.094 1.594.094 1.593c0 .126.007.282.023.47.016.187.055.359.117.515.063.156.149.289.258.398.11.11.227.164.352.164a27.417 27.417 0 0 0 3.14-.188 62.182 62.182 0 0 0 1.688-.21c.562-.078 1.11-.18 1.64-.305a16.096 16.096 0 0 0 1.547-.445 9.95 9.95 0 0 0 1.453-.633c.438-.25.86-.539 1.266-.867.406-.328.75-.695 1.031-1.102.219-.312.414-.664.586-1.054s.32-.79.446-1.196c.093-.406.164-.828.21-1.265.047-.438.04-.875-.023-1.313a5.18 5.18 0 0 0-.844-2.437 4.814 4.814 0 0 0-.843-1.055 5.996 5.996 0 0 0-1.172-.867 19.86 19.86 0 0 0-4.97-1.875A25.039 25.039 0 0 0 20.29 21a27.332 27.332 0 0 0-2.812-.14 5.015 5.015 0 0 0-.938.093 1.031 1.031 0 0 0-.352.164.359.359 0 0 0-.164.305Z"/><path d="M69.508 19.781a36.054 36.054 0 0 1-1.266 1.992 63.195 63.195 0 0 1-1.312 1.852c-.407.625-.82 1.25-1.243 1.875-.421.625-.82 1.25-1.195 1.875a24.953 24.953 0 0 0-1.031 1.898c-.313.641-.578 1.29-.797 1.946-.219.687-.398 1.39-.539 2.11-.14.718-.21 1.468-.21 2.25 0 .812.046 1.593.14 2.343.093.75.234 1.469.422 2.156.187.719.414 1.39.68 2.016.265.625.554 1.218.866 1.781.438.688.922 1.313 1.454 1.875.53.563 1.109 1.063 1.734 1.5a11.5 11.5 0 0 0 2.367 1.172c.86.312 1.774.516 2.742.61a23.092 23.092 0 0 0 1.922-.376 15.79 15.79 0 0 0 1.969-.61 18.654 18.654 0 0 0 1.945-.773 16.29 16.29 0 0 0 1.852-1.007 36.121 36.121 0 0 0 1.945-1.196c.64-.422 1.242-.867 1.805-1.336a39.416 39.416 0 0 0 1.71-1.43 22.88 22.88 0 0 0 1.524-1.476 3.51 3.51 0 0 0 .399-.586c.109-.203.187-.414.234-.633.047-.218.07-.46.07-.726 0-.266-.03-.57-.093-.914a45.129 45.129 0 0 1-.094-2.907c0-.968-.016-1.937-.047-2.906a36.14 36.14 0 0 0-.469-5.812 7.507 7.507 0 0 0-.773-2.203c-.36-.657-.883-1.203-1.57-1.641-.532-.313-1.18-.547-1.946-.703-.766-.156-1.664-.235-2.695-.235.062-.5.11-.984.14-1.453a84.71 84.71 0 0 1 4.031-.094 43.67 43.67 0 0 1 1.993-.046c.672 0 1.351-.016 2.039-.047.656 0 1.32-.008 1.992-.024a85.694 85.694 0 0 1 1.992-.023 25.01 25.01 0 0 1 1.547-.047c.531 0 1.047-.015 1.547-.047a6233.283 6233.283 0 0 0 .188 7.594 12237.613 12237.613 0 0 1 .187 7.547l.094 4.031c.031 1.344.062 2.672.094 3.984.03 1.188.062 2.376.093 3.563l.094 3.563-8.016 1.453-.093-1.875a38.495 38.495 0 0 1-.047-1.922 75.161 75.161 0 0 1-.07-1.875 85.178 85.178 0 0 0-.07-1.922 215.189 215.189 0 0 0-3.845 2.25c-.593.344-1.203.695-1.828 1.055-.625.359-1.234.695-1.828 1.007-.812.375-1.648.743-2.508 1.102-.859.36-1.757.648-2.695.867-.437.125-.906.242-1.406.352-.5.11-1.016.195-1.547.258-.531.093-1.07.156-1.617.187a30.02 30.02 0 0 1-1.711.047 19.59 19.59 0 0 1-3.07.469c-.954.062-1.852.015-2.696-.141a9.569 9.569 0 0 1-1.945-.469 9.961 9.961 0 0 1-1.711-.797 8.443 8.443 0 0 1-1.477-1.101 12.46 12.46 0 0 1-1.242-1.336 16.431 16.431 0 0 1-1.031-1.664 17.314 17.314 0 0 1-.844-1.805 15.994 15.994 0 0 1-.422-1.383c-.125-.484-.234-.96-.328-1.43a19.398 19.398 0 0 1-.281-1.874 18.373 18.373 0 0 1-.094-1.828c0-.5.024-1.008.07-1.524.047-.516.118-1.039.211-1.57.094-.5.211-1.008.352-1.524.14-.515.29-1.023.445-1.523.157-.531.352-1.07.586-1.617.235-.547.461-1.086.68-1.617.187-.375.383-.758.586-1.149.203-.39.414-.758.633-1.102.156-.343.28-.625.375-.843a3.68 3.68 0 0 0 .187-.516l.07-.281c.016-.063.008-.11-.023-.14l-.914-1.009a8.86 8.86 0 0 0-.96-.914 7.046 7.046 0 0 0-1.126-.75 4.692 4.692 0 0 0-1.312-.468 37.259 37.259 0 0 0-.094-.54 2.754 2.754 0 0 1-.047-.492c.625 0 1.258-.023 1.898-.07.641-.047 1.29-.102 1.946-.164a72.384 72.384 0 0 0 3.843-.656l.47.281c.155.094.296.188.421.281h7.594Zm31.687.563.235-.703c.5-.032 1.03-.063 1.593-.094s1.141-.07 1.735-.117a332.97 332.97 0 0 1 1.828-.14c.625-.048 1.25-.102 1.875-.165a518.28 518.28 0 0 0 2.625-.188c.844-.062 1.61-.101 2.297-.117a79.163 79.163 0 0 1 1.758-.023c.484 0 .82.047 1.007.14.032.375.032.743 0 1.102-.03.36-.062.711-.093 1.055a5.6 5.6 0 0 0 .023 1.148c.047.39.164.82.352 1.29a35.65 35.65 0 0 0 1.5-.657 15.88 15.88 0 0 1 1.359-.563c.438-.187.852-.351 1.242-.492.39-.14.774-.258 1.149-.351a82.455 82.455 0 0 1 1.57-.446c.516-.14 1.04-.257 1.57-.351.407-.094.82-.172 1.242-.235.422-.062.868-.125 1.336-.187 1-.313 1.946-.555 2.836-.727a22.69 22.69 0 0 1 2.555-.351 16.227 16.227 0 0 1 4.36.234 11.254 11.254 0 0 1 3.75 1.547c.53.375 1.023.781 1.476 1.219.453.437.852.89 1.195 1.36.532.75.985 1.538 1.36 2.366.375.829.687 1.696.937 2.602.281 1 .477 2.008.586 3.023a21.15 21.15 0 0 1 .117 2.977c0 .813-.054 1.633-.164 2.46-.11.83-.258 1.65-.445 2.462a21.004 21.004 0 0 1-2.25 5.344c-.438.75-.93 1.476-1.477 2.18a26.925 26.925 0 0 1-1.757 2.038c-.407.438-.852.868-1.336 1.29-.485.421-.993.82-1.524 1.195-.531.375-1.078.742-1.64 1.101a31.52 31.52 0 0 1-1.782 1.055c-.468.25-.953.492-1.453.727-.5.234-1 .46-1.5.68a31.41 31.41 0 0 1-4.312 1.406 11.52 11.52 0 0 0 1.359-.75 17.756 17.756 0 0 0 2.46-1.898c.392-.36.774-.743 1.15-1.15a9.78 9.78 0 0 0 .82-.937c.265-.344.523-.672.773-.984a25.164 25.164 0 0 0 1.406-2.157c.282-.53.555-1.07.82-1.617.266-.547.493-1.101.68-1.664.22-.562.422-1.14.61-1.734a18.72 18.72 0 0 0 .469-1.781 24.867 24.867 0 0 0 .468-5.719 25.444 25.444 0 0 0-.234-2.555 25.56 25.56 0 0 0-.516-2.648 15.824 15.824 0 0 0-.61-1.969 17.065 17.065 0 0 0-.843-1.875 15.406 15.406 0 0 0-1.383-1.969 8.085 8.085 0 0 0-1.757-1.593A12.076 12.076 0 0 0 130 22.03c-.89-.343-1.773-.5-2.648-.468-.907 0-1.805.218-2.696.656-.89.437-1.789 1.14-2.695 2.11a14.869 14.869 0 0 0-1.594 1.921 29.825 29.825 0 0 0-1.594 2.531 63.977 63.977 0 0 0-2.156 4.547c0 .031-.015.14-.047.328a6.73 6.73 0 0 0-.07.727c-.016.297-.023.633-.023 1.008s-.016.78-.047 1.218v13.453l-8.297 2.204c0-.47-.008-.938-.024-1.407a43.65 43.65 0 0 1-.023-1.453c0-.5-.008-.992-.024-1.476a45.8 45.8 0 0 1-.023-1.477 59.116 59.116 0 0 1-.094-3.281c0-.563-.015-1.117-.047-1.664a29.166 29.166 0 0 1-.046-1.664 36.32 36.32 0 0 1-.07-1.336c-.016-.453-.04-.914-.071-1.383-.031-.563-.063-1.14-.094-1.734-.031-.594-.062-1.172-.094-1.735a49.366 49.366 0 0 0-.28-3.093 23.69 23.69 0 0 0-.141-1.547 23.69 23.69 0 0 1-.141-1.547 8.26 8.26 0 0 0-.328-1.125 8.221 8.221 0 0 0-.61-1.313 17.97 17.97 0 0 0-.515-.867 6.572 6.572 0 0 0-.61-.82 9.787 9.787 0 0 0-.703-.89 5.56 5.56 0 0 0-.89-.798c-.313-.25-.641-.484-.985-.703a9.537 9.537 0 0 0-1.125-.61Zm51.328-2.578c.657.093 1.313.132 1.97.117a32.878 32.878 0 0 0 2.062-.117c.687-.032 1.375-.07 2.062-.118.688-.046 1.36-.054 2.016-.023.906 0 1.773.117 2.601.352.828.234 1.57.632 2.227 1.195.25.187.469.422.656.703.188.281.367.594.54.938.171.343.335.687.491 1.03.157.345.297.657.422.938.938-.25 1.82-.5 2.649-.75.828-.25 1.648-.5 2.46-.75 1.063-.281 2.126-.578 3.188-.89a59.836 59.836 0 0 1 3.422-.891c.406-.125.914-.203 1.523-.234a36.15 36.15 0 0 1 1.852-.047c.625 0 1.234.031 1.828.093.594.063 1.11.125 1.547.188.656.125 1.29.29 1.898.492.61.203 1.196.438 1.758.703.563.266 1.086.563 1.57.89.485.33.93.665 1.337 1.009.812.718 1.46 1.468 1.945 2.25.484.781.758 1.547.82 2.297l-8.203 2.343a10.403 10.403 0 0 0-.89-1.875 9.582 9.582 0 0 0-1.172-1.547c-.5-.5-1.032-.945-1.594-1.335a11.107 11.107 0 0 0-1.781-1.008 20.401 20.401 0 0 0-1.922-.75 66.595 66.595 0 0 0-1.922-.61c-.781-.187-1.469-.265-2.063-.234a4.87 4.87 0 0 0-1.734.422 7.41 7.41 0 0 0-1.594 1.172c-.531.5-1.094 1.11-1.687 1.828a8.61 8.61 0 0 0-1.125 1.781 13.433 13.433 0 0 0-.797 2.156 27.525 27.525 0 0 0-.469 2.461c-.125.86-.203 1.727-.234 2.602a83.028 83.028 0 0 0-.188 5.531c0 .938-.015 1.844-.047 2.719a61.781 61.781 0 0 1-.14 2.531c.937.063 1.89.117 2.859.164.969.047 1.922.086 2.86.117a181.052 181.052 0 0 0 5.812.282l3.258.187c1.078.063 2.133.11 3.164.14a235.922 235.922 0 0 0 6.14.282c.22 0 .383.047.493.14a.53.53 0 0 1 .187.352c.016.14-.016.305-.094.492-.078.188-.18.375-.304.563a6.473 6.473 0 0 1-.985 1.148c-.187.172-.367.32-.539.446-.172.125-.32.218-.445.28-.75.345-1.508.642-2.274.892-.765.25-1.554.453-2.367.609a16.001 16.001 0 0 1-4.875.375c-.156 0-.242-.031-.258-.094-.015-.062.008-.133.07-.21.063-.079.173-.18.329-.306.156-.124.328-.242.516-.351.187-.11.39-.234.609-.375.219-.14.43-.29.633-.445.203-.157.39-.305.562-.446.172-.14.305-.273.399-.398.25-.313.351-.547.304-.703a.493.493 0 0 0-.328-.328 1.707 1.707 0 0 0-.586-.094h-.515a25.843 25.843 0 0 0-1.852-.211 69.197 69.197 0 0 0-1.851-.117 36.15 36.15 0 0 0-3.703-.188 66.344 66.344 0 0 0-1.829-.07c-.625-.016-1.25-.04-1.875-.07a36.15 36.15 0 0 1-1.851-.047c-.61-.032-1.227-.063-1.852-.094a78.21 78.21 0 0 0-.047 2.695v8.134c0 1.75-.047 3.483-.14 5.202a81.285 81.285 0 0 1-.235 2.79 90 90 0 0 1-.328 2.788 11.532 11.532 0 0 1-.422 1.641 9.132 9.132 0 0 1-.703 1.594 10.06 10.06 0 0 1-1.031 1.406 7.17 7.17 0 0 1-1.453 1.266c.687.093 1.375.171 2.062.234a22.77 22.77 0 0 0 2.063.094 31.21 31.21 0 0 0 2.086.023A27.832 27.832 0 0 0 171.46 75a12.453 12.453 0 0 0 3.188-.797l.468.938c-.594.156-1.195.304-1.805.445a24.57 24.57 0 0 1-1.851.352 67.85 67.85 0 0 1-2.438.328c-.812.093-1.64.156-2.484.187-.625.031-1.273.063-1.945.094-.672.031-1.336.062-1.992.094-.875.03-1.735.062-2.579.093-.843.032-1.687.047-2.53.047a128.6 128.6 0 0 0-4.97.281v-.937a3.768 3.768 0 0 0 1.852-.281c.297-.125.594-.29.89-.492.297-.204.57-.43.82-.68.282-.25.532-.516.75-.797a8.68 8.68 0 0 0 .61-.89 6.68 6.68 0 0 0 .47-.938c.124-.313.202-.625.233-.938.094-.625.188-1.265.282-1.921.093-.657.172-1.313.234-1.97a83.548 83.548 0 0 0 .281-3.937c.032-.656.063-1.32.094-1.992.031-.672.047-1.336.047-1.992v-3.985a163.302 163.302 0 0 1 .094-5.437c0-.906.015-1.813.047-2.719.03-.906.062-1.797.093-2.672a4463.693 4463.693 0 0 1 .188-5.39c0-.875.008-1.75.023-2.625.016-.875.008-1.75-.023-2.625v-2.086c0-.766-.016-1.54-.047-2.32a39.787 39.787 0 0 0-.211-2.977 16.966 16.966 0 0 0-.54-2.836 9.58 9.58 0 0 0-.82-1.945 5.841 5.841 0 0 0-1.242-1.524 5.414 5.414 0 0 0-1.757-.937c-.672-.219-1.461-.313-2.368-.282v-1.171Zm48.235 2.109c1.094.031 2.18.055 3.258.07 1.078.016 2.148.04 3.21.07a229.708 229.708 0 0 1 6.563.094c.219.063.383.141.492.235.11.093.18.21.211.351.031.14.047.297.047.47 0 .17-.016.35-.047.538v13.313l-.047 13.312v.563c0 .218-.023.437-.07.656a2.056 2.056 0 0 1-.234.61c-.11.187-.258.296-.446.327-.656.188-1.273.328-1.851.422-.578.094-1.18.157-1.805.188s-1.32.047-2.086.047h-2.742c.125-.407.21-.774.258-1.102.047-.328.086-.648.117-.96a9.9 9.9 0 0 0 .047-.985V26.39c0-.094-.047-.227-.14-.399a7.529 7.529 0 0 0-.4-.633c-.171-.25-.374-.515-.609-.797a57.568 57.568 0 0 1-.726-.89c-.25-.344-.508-.68-.774-1.008-.265-.328-.53-.656-.797-.984-.265-.328-.523-.64-.773-.938a9.752 9.752 0 0 1-.656-.867Zm13.875-18 .328 2.438.375 2.39-4.031.469-4.032.469-.28-2.391-.235-2.39 3.937-.47 3.938-.515Zm46.265 23.438-7.734 1.78a10.237 10.237 0 0 0-1.43-1.757 16.858 16.858 0 0 0-1.804-1.57 14.67 14.67 0 0 0-1.946-1.266c-.64-.344-1.242-.578-1.804-.703a413.24 413.24 0 0 0-1.875-.352 26.309 26.309 0 0 0-1.688-.258 10.01 10.01 0 0 0-1.5-.07c-.469.016-.937.07-1.406.164a6.544 6.544 0 0 0-1.29.422 6.116 6.116 0 0 0-1.241.75c-.438.313-.868.68-1.29 1.102a22.31 22.31 0 0 0-1.335 1.476c-.47.594-.891 1.258-1.266 1.992a14.407 14.407 0 0 0-.937 2.32 16.437 16.437 0 0 0-.47 1.876 21.32 21.32 0 0 0-.28 1.968 22.115 22.115 0 0 0 .28 4.547c.126.72.305 1.43.54 2.133.234.703.508 1.352.82 1.946.281.5.61 1.007.985 1.523s.796 1.008 1.265 1.477a14.522 14.522 0 0 0 1.945 1.71c.704.516 1.446.961 2.227 1.336.688.344 1.406.61 2.156.797a9.106 9.106 0 0 0 4.594-.023 8.355 8.355 0 0 0 2.25-.961 14.559 14.559 0 0 0 2.04-1.5 21.588 21.588 0 0 0 1.804-1.781 28.598 28.598 0 0 0 1.594-2.04c.5-.703.968-1.413 1.406-2.132l7.828-1.453c-.406.78-.82 1.586-1.242 2.414a119.07 119.07 0 0 1-1.29 2.46 77.058 77.058 0 0 1-2.156 3.844 33.42 33.42 0 0 1-1.312 2.133 76.842 76.842 0 0 1-1.406 2.04 85.04 85.04 0 0 1-1.547 1.968 32.002 32.002 0 0 1-1.64 1.875 61.069 61.069 0 0 1-1.735 1.758 36.582 36.582 0 0 1-1.828 1.664 41.765 41.765 0 0 1-3.282 2.531c-.53.375-1.078.742-1.64 1.102-.563.36-1.125.71-1.688 1.054a77.17 77.17 0 0 1-2.297 1.196c-.78.39-1.562.742-2.343 1.054-.22.094-.36.102-.422.024-.063-.078-.078-.188-.047-.328a1.57 1.57 0 0 1 .164-.422c.078-.14.133-.227.164-.258a32.855 32.855 0 0 0 2.156-1.664 73.785 73.785 0 0 0 2.016-1.758 33.008 33.008 0 0 0 1.64-1.664 47.022 47.022 0 0 0 1.5-1.71 72.2 72.2 0 0 0 1.641-2.18 23.3 23.3 0 0 0 1.453-2.274 35.42 35.42 0 0 0 1.055-1.781c.328-.594.617-1.203.867-1.828.063-.157.047-.274-.047-.352a1.073 1.073 0 0 0-.351-.187c-.14-.047-.29-.07-.446-.07h-.328c-.562.156-1.148.327-1.758.515a36.04 36.04 0 0 1-1.851.516c-.656.187-1.32.343-1.992.468-.672.125-1.336.25-1.992.375-.657.094-1.329.172-2.016.235a22.77 22.77 0 0 1-2.063.093 20.965 20.965 0 0 1-1.968-.187A11.722 11.722 0 0 1 233.43 51c-.844-.25-1.61-.555-2.297-.914a14.757 14.757 0 0 1-1.922-1.195 11.95 11.95 0 0 1-1.524-1.407c-.453-.5-.867-1.03-1.242-1.593a14.63 14.63 0 0 1-.937-1.688 18.69 18.69 0 0 1-.75-1.828 28.569 28.569 0 0 1-.61-1.852 22.396 22.396 0 0 1-.468-1.898 10.03 10.03 0 0 1-.258-1.523 10.508 10.508 0 0 1-.024-1.57c0-.688.055-1.376.164-2.063.11-.688.258-1.36.446-2.016.125-.531.297-1.07.515-1.617.22-.547.438-1.07.657-1.57.28-.563.593-1.11.937-1.641.344-.531.688-1.016 1.031-1.453.313-.375.649-.774 1.008-1.195.36-.422.727-.82 1.102-1.196.375-.343.75-.664 1.125-.96.375-.298.703-.493.984-.587a30.521 30.521 0 0 1 3.328-.843c1.063-.22 2.14-.391 3.235-.516a72.04 72.04 0 0 1 3.21-.305 170.04 170.04 0 0 0 3.165-.258c1-.062 2-.078 3-.046 1 .03 2 .125 3 .28.968.126 1.945.306 2.93.54.984.234 1.929.523 2.835.867a7.391 7.391 0 0 1 2.813 1.781c.406.375.781.79 1.125 1.243.344.453.64.898.89 1.335Z"/></svg>