<?xml version="1.0" encoding="UTF-8"?>
<svg version="1.1" width="236px" height="64px" viewBox="0 0 236 64" xmlns="http://www.w3.org/2000/svg">
<title>GOSUB</title>
<g fill="none" stroke-linecap="round" stroke-linejoin="round">
<g transform="translate(7.0156 13.156)" stroke="#f0f" stroke-width="6">
<path id="Path" d="m33.312 27.125v8.5938c-2.8958 1.5625-5.3594 2.6302-7.3906 3.2031s-4.224 0.85938-6.5781 0.85938c-3.2708 0-6.3021-0.48958-9.0938-1.4688-2.1875-0.75-3.9115-1.6979-5.1719-2.8438s-2.4219-2.8385-3.4844-5.0781-1.5938-4.7448-1.5938-7.5156v-4.625c0-4.2708 1.3021-8.0833 3.9062-11.438 3.5-4.5417 8.2604-6.8125 14.281-6.8125 1.75 0 3.4115 0.17708 4.9844 0.53125s3.0677 0.88542 4.4844 1.5938c0.85417-0.77083 1.6875-1.1562 2.5-1.1562 0.9375 0 1.6979 0.32292 2.2812 0.96875s0.875 1.7396 0.875 3.2812v4.1562c0 1.5417-0.29688 2.6406-0.89062 3.2969s-1.3594 0.98438-2.2969 0.98438c-0.75 0-1.3958-0.22917-1.9375-0.6875-0.41667-0.3125-0.76562-1.0052-1.0469-2.0781-0.28125-1.0729-0.59896-1.7969-0.95312-2.1719-0.5625-0.60417-1.5573-1.1406-2.9844-1.6094s-3.026-0.70312-4.7969-0.70312c-2.5417 0-4.75 0.52083-6.625 1.5625-1.3333 0.77083-2.5625 2.1146-3.6875 4.0312s-1.6875 4-1.6875 6.25v4.625c0 3.4375 0.99479 6.0469 2.9844 7.8281 1.9896 1.7812 5.151 2.6719 9.4844 2.6719 2.9375 0 5.6146-0.55208 8.0312-1.6562v-4.5938h-6.5312c-1.5417 0-2.6406-0.29688-3.2969-0.89062s-0.98438-1.3698-0.98438-2.3281 0.32812-1.7344 0.98438-2.3281 1.7552-0.89062 3.2969-0.89062l11.375 0.03125c1.5417 0 2.6406 0.29167 3.2969 0.875s0.98438 1.3542 0.98438 2.3125c0 0.75-0.22396 1.4062-0.67188 1.9688s-1.1302 0.97917-2.0469 1.25z"/>
<path id="Shape" d="m81.562 19.906c0 5.6875-1.8073 10.422-5.4219 14.203s-7.7969 5.6719-12.547 5.6719c-4.2708 0-8.125-1.5729-11.562-4.7188-4.25-3.8958-6.375-8.9479-6.375-15.156s2.125-11.271 6.375-15.188c3.4375-3.1458 7.2917-4.7188 11.562-4.7188 4.75 0 8.9323 1.8906 12.547 5.6719s5.4219 8.526 5.4219 14.234zm-6.4062 0c0-3.8958-1.1771-7.1198-3.5312-9.6719-2.3542-2.5521-5.0312-3.8281-8.0312-3.8281-2.9792 0-5.6458 1.2812-8 3.8438s-3.5312 5.7812-3.5312 9.6562 1.1771 7.0885 3.5312 9.6406 5.0208 3.8281 8 3.8281c3 0 5.6771-1.2708 8.0312-3.8125s3.5312-5.7604 3.5312-9.6562z"/>
<path id="Path" d="m100.62 37.219c-0.5625 0.66667-1.0156 1.0938-1.3594 1.2812s-0.76562 0.28125-1.2656 0.28125c-0.97917 0-1.7656-0.32812-2.3594-0.98438s-0.89062-1.7448-0.89062-3.2656v-4.3125c0-1.5417 0.29688-2.6406 0.89062-3.2969s1.3802-0.98438 2.3594-0.98438c0.75 0 1.3802 0.19792 1.8906 0.59375 0.51042 0.39583 0.90104 1.0573 1.1719 1.9844s0.55208 1.5573 0.84375 1.8906c0.60417 0.64583 1.6771 1.3021 3.2188 1.9688s3.2292 1 5.0625 1c2.8542 0 5.1979-0.66667 7.0312-2 1.1667-0.8125 1.75-1.8125 1.75-3 0-0.79167-0.28125-1.5365-0.84375-2.2344s-1.4792-1.276-2.75-1.7344c-0.83333-0.3125-2.6979-0.73958-5.5938-1.2812-3.5-0.64583-6.1458-1.4271-7.9375-2.3438s-3.2083-2.2083-4.25-3.875-1.5625-3.4688-1.5625-5.4062c0-3.0625 1.2812-5.7448 3.8438-8.0469s5.8958-3.4531 10-3.4531c1.6458 0 3.1719 0.18229 4.5781 0.54688s2.6823 0.92188 3.8281 1.6719c0.83333-0.8125 1.6667-1.2188 2.5-1.2188 0.9375 0 1.7031 0.32812 2.2969 0.98438s0.89062 1.7448 0.89062 3.2656v4.8125c0 1.5417-0.29688 2.6406-0.89062 3.2969s-1.3594 0.98438-2.2969 0.98438c-0.79167 0-1.4792-0.23958-2.0625-0.71875-0.45833-0.35417-0.80208-1.0625-1.0312-2.125s-0.52083-1.8229-0.875-2.2812c-0.60417-0.79167-1.5104-1.4583-2.7188-2s-2.6042-0.8125-4.1875-0.8125c-2.3125 0-4.1406 0.53646-5.4844 1.6094s-2.0156 2.1927-2.0156 3.3594c0 0.79167 0.27604 1.5573 0.82812 2.2969s1.3594 1.3177 2.4219 1.7344c0.70833 0.29167 2.7031 0.76042 5.9844 1.4062s5.8021 1.3542 7.5625 2.125 3.224 1.9792 4.3906 3.625 1.75 3.6042 1.75 5.875c0 3.1667-1.1146 5.6979-3.3438 7.5938-2.9583 2.5-6.7292 3.75-11.312 3.75-1.7708 0-3.4948-0.21354-5.1719-0.64062s-3.3073-1.0677-4.8906-1.9219z"/>
<path id="Path" d="m171.03 7.375v18.156c0 3.9583-1.4219 7.3229-4.2656 10.094s-6.2656 4.1562-10.266 4.1562c-1.9792 0-3.8385-0.34896-5.5781-1.0469s-3.3021-1.724-4.6875-3.0781-2.4635-2.7656-3.2344-4.2344-1.1562-3.4323-1.1562-5.8906v-18.156c-1.3542 0-2.3542-0.30208-3-0.90625s-0.96875-1.375-0.96875-2.3125c0-0.95833 0.32292-1.7292 0.96875-2.3125s1.75-0.875 3.3125-0.875l8.4062-0.03125c1.5417 0 2.6406 0.29688 3.2969 0.89062s0.98438 1.3698 0.98438 2.3281-0.32812 1.7344-0.98438 2.3281-1.7552 0.89062-3.2969 0.89062h-2.3125v18.719c0 1.9167 0.79688 3.6094 2.3906 5.0781s3.5156 2.2031 5.7656 2.2031c1.5 0 2.9062-0.35417 4.2188-1.0625s2.3854-1.7396 3.2188-3.0938c0.52083-0.85417 0.78125-1.8958 0.78125-3.125v-18.719h-2.3125c-1.5417 0-2.6406-0.29688-3.2969-0.89062s-0.98438-1.3698-0.98438-2.3281 0.32812-1.7344 0.98438-2.3281 1.7552-0.89062 3.2969-0.89062l8.4062 0.03125c1.5417 0 2.6406 0.29167 3.2969 0.875s0.98438 1.3542 0.98438 2.3125c0 0.9375-0.32292 1.7083-0.96875 2.3125s-1.6458 0.90625-3 0.90625z"/>
<path id="Shape" d="m189.72 32.438v-25.062h-1c-1.5417 0-2.6406-0.29688-3.2969-0.89062s-0.98438-1.3698-0.98438-2.3281 0.32812-1.7344 0.98438-2.3281 1.7552-0.89062 3.2969-0.89062h16.062c3.8333 0 6.9167 1.0677 9.25 3.2031s3.5 4.6719 3.5 7.6094c0 1.3958-0.27083 2.7083-0.8125 3.9375s-1.3646 2.3646-2.4688 3.4062c2.0208 1.2083 3.5365 2.6198 4.5469 4.2344s1.5156 3.4427 1.5156 5.4844c0 1.625-0.36458 3.1354-1.0938 4.5312-0.54167 1.0625-1.2083 1.9062-2 2.5312-1.0625 0.875-2.3646 1.5885-3.9062 2.1406s-3.4688 0.82812-5.7812 0.82812h-18.812c-1.5417 0-2.6406-0.29688-3.2969-0.89062s-0.98438-1.3698-0.98438-2.3281c0-0.9375 0.33333-1.7031 1-2.2969s1.7604-0.89062 3.2812-0.89062h1zm6.4062-15.75h7.0312c2.5208 0 4.6146-0.63542 6.2812-1.9062 1.125-0.85417 1.6875-1.9167 1.6875-3.1875 0-1.125-0.53125-2.1094-1.5938-2.9531s-2.75-1.2656-5.0625-1.2656h-8.3438v9.3125zm0 15.75h11.062c2.6042 0 4.4375-0.38542 5.5-1.1562 0.8125-0.58333 1.2188-1.4167 1.2188-2.5 0-1.2917-0.80208-2.5625-2.4062-3.8125s-3.9062-1.875-6.9062-1.875h-8.4688v9.3438z"/>
</g>
<g transform="translate(7.0156 11.156)" stroke="#ff0" stroke-dasharray="0,5" stroke-width="4">
<path id="Path" d="m33.312 27.125v8.5938c-2.8958 1.5625-5.3594 2.6302-7.3906 3.2031s-4.224 0.85938-6.5781 0.85938c-3.2708 0-6.3021-0.48958-9.0938-1.4688-2.1875-0.75-3.9115-1.6979-5.1719-2.8438s-2.4219-2.8385-3.4844-5.0781-1.5938-4.7448-1.5938-7.5156v-4.625c0-4.2708 1.3021-8.0833 3.9062-11.438 3.5-4.5417 8.2604-6.8125 14.281-6.8125 1.75 0 3.4115 0.17708 4.9844 0.53125s3.0677 0.88542 4.4844 1.5938c0.85417-0.77083 1.6875-1.1562 2.5-1.1562 0.9375 0 1.6979 0.32292 2.2812 0.96875s0.875 1.7396 0.875 3.2812v4.1562c0 1.5417-0.29688 2.6406-0.89062 3.2969s-1.3594 0.98438-2.2969 0.98438c-0.75 0-1.3958-0.22917-1.9375-0.6875-0.41667-0.3125-0.76562-1.0052-1.0469-2.0781-0.28125-1.0729-0.59896-1.7969-0.95312-2.1719-0.5625-0.60417-1.5573-1.1406-2.9844-1.6094s-3.026-0.70312-4.7969-0.70312c-2.5417 0-4.75 0.52083-6.625 1.5625-1.3333 0.77083-2.5625 2.1146-3.6875 4.0312s-1.6875 4-1.6875 6.25v4.625c0 3.4375 0.99479 6.0469 2.9844 7.8281 1.9896 1.7812 5.151 2.6719 9.4844 2.6719 2.9375 0 5.6146-0.55208 8.0312-1.6562v-4.5938h-6.5312c-1.5417 0-2.6406-0.29688-3.2969-0.89062s-0.98438-1.3698-0.98438-2.3281 0.32812-1.7344 0.98438-2.3281 1.7552-0.89062 3.2969-0.89062l11.375 0.03125c1.5417 0 2.6406 0.29167 3.2969 0.875s0.98438 1.3542 0.98438 2.3125c0 0.75-0.22396 1.4062-0.67188 1.9688s-1.1302 0.97917-2.0469 1.25z"/>
<path id="Shape" d="m81.562 19.906c0 5.6875-1.8073 10.422-5.4219 14.203s-7.7969 5.6719-12.547 5.6719c-4.2708 0-8.125-1.5729-11.562-4.7188-4.25-3.8958-6.375-8.9479-6.375-15.156s2.125-11.271 6.375-15.188c3.4375-3.1458 7.2917-4.7188 11.562-4.7188 4.75 0 8.9323 1.8906 12.547 5.6719s5.4219 8.526 5.4219 14.234zm-6.4062 0c0-3.8958-1.1771-7.1198-3.5312-9.6719-2.3542-2.5521-5.0312-3.8281-8.0312-3.8281-2.9792 0-5.6458 1.2812-8 3.8438s-3.5312 5.7812-3.5312 9.6562 1.1771 7.0885 3.5312 9.6406 5.0208 3.8281 8 3.8281c3 0 5.6771-1.2708 8.0312-3.8125s3.5312-5.7604 3.5312-9.6562z"/>
<path id="Path" d="m100.62 37.219c-0.5625 0.66667-1.0156 1.0938-1.3594 1.2812s-0.76562 0.28125-1.2656 0.28125c-0.97917 0-1.7656-0.32812-2.3594-0.98438s-0.89062-1.7448-0.89062-3.2656v-4.3125c0-1.5417 0.29688-2.6406 0.89062-3.2969s1.3802-0.98438 2.3594-0.98438c0.75 0 1.3802 0.19792 1.8906 0.59375 0.51042 0.39583 0.90104 1.0573 1.1719 1.9844s0.55208 1.5573 0.84375 1.8906c0.60417 0.64583 1.6771 1.3021 3.2188 1.9688s3.2292 1 5.0625 1c2.8542 0 5.1979-0.66667 7.0312-2 1.1667-0.8125 1.75-1.8125 1.75-3 0-0.79167-0.28125-1.5365-0.84375-2.2344s-1.4792-1.276-2.75-1.7344c-0.83333-0.3125-2.6979-0.73958-5.5938-1.2812-3.5-0.64583-6.1458-1.4271-7.9375-2.3438s-3.2083-2.2083-4.25-3.875-1.5625-3.4688-1.5625-5.4062c0-3.0625 1.2812-5.7448 3.8438-8.0469s5.8958-3.4531 10-3.4531c1.6458 0 3.1719 0.18229 4.5781 0.54688s2.6823 0.92188 3.8281 1.6719c0.83333-0.8125 1.6667-1.2188 2.5-1.2188 0.9375 0 1.7031 0.32812 2.2969 0.98438s0.89062 1.7448 0.89062 3.2656v4.8125c0 1.5417-0.29688 2.6406-0.89062 3.2969s-1.3594 0.98438-2.2969 0.98438c-0.79167 0-1.4792-0.23958-2.0625-0.71875-0.45833-0.35417-0.80208-1.0625-1.0312-2.125s-0.52083-1.8229-0.875-2.2812c-0.60417-0.79167-1.5104-1.4583-2.7188-2s-2.6042-0.8125-4.1875-0.8125c-2.3125 0-4.1406 0.53646-5.4844 1.6094s-2.0156 2.1927-2.0156 3.3594c0 0.79167 0.27604 1.5573 0.82812 2.2969s1.3594 1.3177 2.4219 1.7344c0.70833 0.29167 2.7031 0.76042 5.9844 1.4062s5.8021 1.3542 7.5625 2.125 3.224 1.9792 4.3906 3.625 1.75 3.6042 1.75 5.875c0 3.1667-1.1146 5.6979-3.3438 7.5938-2.9583 2.5-6.7292 3.75-11.312 3.75-1.7708 0-3.4948-0.21354-5.1719-0.64062s-3.3073-1.0677-4.8906-1.9219z"/>
<path id="Path" d="m171.03 7.375v18.156c0 3.9583-1.4219 7.3229-4.2656 10.094s-6.2656 4.1562-10.266 4.1562c-1.9792 0-3.8385-0.34896-5.5781-1.0469s-3.3021-1.724-4.6875-3.0781-2.4635-2.7656-3.2344-4.2344-1.1562-3.4323-1.1562-5.8906v-18.156c-1.3542 0-2.3542-0.30208-3-0.90625s-0.96875-1.375-0.96875-2.3125c0-0.95833 0.32292-1.7292 0.96875-2.3125s1.75-0.875 3.3125-0.875l8.4062-0.03125c1.5417 0 2.6406 0.29688 3.2969 0.89062s0.98438 1.3698 0.98438 2.3281-0.32812 1.7344-0.98438 2.3281-1.7552 0.89062-3.2969 0.89062h-2.3125v18.719c0 1.9167 0.79688 3.6094 2.3906 5.0781s3.5156 2.2031 5.7656 2.2031c1.5 0 2.9062-0.35417 4.2188-1.0625s2.3854-1.7396 3.2188-3.0938c0.52083-0.85417 0.78125-1.8958 0.78125-3.125v-18.719h-2.3125c-1.5417 0-2.6406-0.29688-3.2969-0.89062s-0.98438-1.3698-0.98438-2.3281 0.32812-1.7344 0.98438-2.3281 1.7552-0.89062 3.2969-0.89062l8.4062 0.03125c1.5417 0 2.6406 0.29167 3.2969 0.875s0.98438 1.3542 0.98438 2.3125c0 0.9375-0.32292 1.7083-0.96875 2.3125s-1.6458 0.90625-3 0.90625z"/>
<path id="Shape" d="m189.72 32.438v-25.062h-1c-1.5417 0-2.6406-0.29688-3.2969-0.89062s-0.98438-1.3698-0.98438-2.3281 0.32812-1.7344 0.98438-2.3281 1.7552-0.89062 3.2969-0.89062h16.062c3.8333 0 6.9167 1.0677 9.25 3.2031s3.5 4.6719 3.5 7.6094c0 1.3958-0.27083 2.7083-0.8125 3.9375s-1.3646 2.3646-2.4688 3.4062c2.0208 1.2083 3.5365 2.6198 4.5469 4.2344s1.5156 3.4427 1.5156 5.4844c0 1.625-0.36458 3.1354-1.0938 4.5312-0.54167 1.0625-1.2083 1.9062-2 2.5312-1.0625 0.875-2.3646 1.5885-3.9062 2.1406s-3.4688 0.82812-5.7812 0.82812h-18.812c-1.5417 0-2.6406-0.29688-3.2969-0.89062s-0.98438-1.3698-0.98438-2.3281c0-0.9375 0.33333-1.7031 1-2.2969s1.7604-0.89062 3.2812-0.89062h1zm6.4062-15.75h7.0312c2.5208 0 4.6146-0.63542 6.2812-1.9062 1.125-0.85417 1.6875-1.9167 1.6875-3.1875 0-1.125-0.53125-2.1094-1.5938-2.9531s-2.75-1.2656-5.0625-1.2656h-8.3438v9.3125zm0 15.75h11.062c2.6042 0 4.4375-0.38542 5.5-1.1562 0.8125-0.58333 1.2188-1.4167 1.2188-2.5 0-1.2917-0.80208-2.5625-2.4062-3.8125s-3.9062-1.875-6.9062-1.875h-8.4688v9.3438z"/>
</g>
<g transform="translate(9.0156 13.156)" stroke="#0ff" stroke-dasharray="0,5" stroke-width="4">
<path id="Path" d="m33.312 27.125v8.5938c-2.8958 1.5625-5.3594 2.6302-7.3906 3.2031s-4.224 0.85938-6.5781 0.85938c-3.2708 0-6.3021-0.48958-9.0938-1.4688-2.1875-0.75-3.9115-1.6979-5.1719-2.8438s-2.4219-2.8385-3.4844-5.0781-1.5938-4.7448-1.5938-7.5156v-4.625c0-4.2708 1.3021-8.0833 3.9062-11.438 3.5-4.5417 8.2604-6.8125 14.281-6.8125 1.75 0 3.4115 0.17708 4.9844 0.53125s3.0677 0.88542 4.4844 1.5938c0.85417-0.77083 1.6875-1.1562 2.5-1.1562 0.9375 0 1.6979 0.32292 2.2812 0.96875s0.875 1.7396 0.875 3.2812v4.1562c0 1.5417-0.29688 2.6406-0.89062 3.2969s-1.3594 0.98438-2.2969 0.98438c-0.75 0-1.3958-0.22917-1.9375-0.6875-0.41667-0.3125-0.76562-1.0052-1.0469-2.0781-0.28125-1.0729-0.59896-1.7969-0.95312-2.1719-0.5625-0.60417-1.5573-1.1406-2.9844-1.6094s-3.026-0.70312-4.7969-0.70312c-2.5417 0-4.75 0.52083-6.625 1.5625-1.3333 0.77083-2.5625 2.1146-3.6875 4.0312s-1.6875 4-1.6875 6.25v4.625c0 3.4375 0.99479 6.0469 2.9844 7.8281 1.9896 1.7812 5.151 2.6719 9.4844 2.6719 2.9375 0 5.6146-0.55208 8.0312-1.6562v-4.5938h-6.5312c-1.5417 0-2.6406-0.29688-3.2969-0.89062s-0.98438-1.3698-0.98438-2.3281 0.32812-1.7344 0.98438-2.3281 1.7552-0.89062 3.2969-0.89062l11.375 0.03125c1.5417 0 2.6406 0.29167 3.2969 0.875s0.98438 1.3542 0.98438 2.3125c0 0.75-0.22396 1.4062-0.67188 1.9688s-1.1302 0.97917-2.0469 1.25z"/>
<path id="Shape" d="m81.562 19.906c0 5.6875-1.8073 10.422-5.4219 14.203s-7.7969 5.6719-12.547 5.6719c-4.2708 0-8.125-1.5729-11.562-4.7188-4.25-3.8958-6.375-8.9479-6.375-15.156s2.125-11.271 6.375-15.188c3.4375-3.1458 7.2917-4.7188 11.562-4.7188 4.75 0 8.9323 1.8906 12.547 5.6719s5.4219 8.526 5.4219 14.234zm-6.4062 0c0-3.8958-1.1771-7.1198-3.5312-9.6719-2.3542-2.5521-5.0312-3.8281-8.0312-3.8281-2.9792 0-5.6458 1.2812-8 3.8438s-3.5312 5.7812-3.5312 9.6562 1.1771 7.0885 3.5312 9.6406 5.0208 3.8281 8 3.8281c3 0 5.6771-1.2708 8.0312-3.8125s3.5312-5.7604 3.5312-9.6562z"/>
<path id="Path" d="m100.62 37.219c-0.5625 0.66667-1.0156 1.0938-1.3594 1.2812s-0.76562 0.28125-1.2656 0.28125c-0.97917 0-1.7656-0.32812-2.3594-0.98438s-0.89062-1.7448-0.89062-3.2656v-4.3125c0-1.5417 0.29688-2.6406 0.89062-3.2969s1.3802-0.98438 2.3594-0.98438c0.75 0 1.3802 0.19792 1.8906 0.59375 0.51042 0.39583 0.90104 1.0573 1.1719 1.9844s0.55208 1.5573 0.84375 1.8906c0.60417 0.64583 1.6771 1.3021 3.2188 1.9688s3.2292 1 5.0625 1c2.8542 0 5.1979-0.66667 7.0312-2 1.1667-0.8125 1.75-1.8125 1.75-3 0-0.79167-0.28125-1.5365-0.84375-2.2344s-1.4792-1.276-2.75-1.7344c-0.83333-0.3125-2.6979-0.73958-5.5938-1.2812-3.5-0.64583-6.1458-1.4271-7.9375-2.3438s-3.2083-2.2083-4.25-3.875-1.5625-3.4688-1.5625-5.4062c0-3.0625 1.2812-5.7448 3.8438-8.0469s5.8958-3.4531 10-3.4531c1.6458 0 3.1719 0.18229 4.5781 0.54688s2.6823 0.92188 3.8281 1.6719c0.83333-0.8125 1.6667-1.2188 2.5-1.2188 0.9375 0 1.7031 0.32812 2.2969 0.98438s0.89062 1.7448 0.89062 3.2656v4.8125c0 1.5417-0.29688 2.6406-0.89062 3.2969s-1.3594 0.98438-2.2969 0.98438c-0.79167 0-1.4792-0.23958-2.0625-0.71875-0.45833-0.35417-0.80208-1.0625-1.0312-2.125s-0.52083-1.8229-0.875-2.2812c-0.60417-0.79167-1.5104-1.4583-2.7188-2s-2.6042-0.8125-4.1875-0.8125c-2.3125 0-4.1406 0.53646-5.4844 1.6094s-2.0156 2.1927-2.0156 3.3594c0 0.79167 0.27604 1.5573 0.82812 2.2969s1.3594 1.3177 2.4219 1.7344c0.70833 0.29167 2.7031 0.76042 5.9844 1.4062s5.8021 1.3542 7.5625 2.125 3.224 1.9792 4.3906 3.625 1.75 3.6042 1.75 5.875c0 3.1667-1.1146 5.6979-3.3438 7.5938-2.9583 2.5-6.7292 3.75-11.312 3.75-1.7708 0-3.4948-0.21354-5.1719-0.64062s-3.3073-1.0677-4.8906-1.9219z"/>
<path id="Path" d="m171.03 7.375v18.156c0 3.9583-1.4219 7.3229-4.2656 10.094s-6.2656 4.1562-10.266 4.1562c-1.9792 0-3.8385-0.34896-5.5781-1.0469s-3.3021-1.724-4.6875-3.0781-2.4635-2.7656-3.2344-4.2344-1.1562-3.4323-1.1562-5.8906v-18.156c-1.3542 0-2.3542-0.30208-3-0.90625s-0.96875-1.375-0.96875-2.3125c0-0.95833 0.32292-1.7292 0.96875-2.3125s1.75-0.875 3.3125-0.875l8.4062-0.03125c1.5417 0 2.6406 0.29688 3.2969 0.89062s0.98438 1.3698 0.98438 2.3281-0.32812 1.7344-0.98438 2.3281-1.7552 0.89062-3.2969 0.89062h-2.3125v18.719c0 1.9167 0.79688 3.6094 2.3906 5.0781s3.5156 2.2031 5.7656 2.2031c1.5 0 2.9062-0.35417 4.2188-1.0625s2.3854-1.7396 3.2188-3.0938c0.52083-0.85417 0.78125-1.8958 0.78125-3.125v-18.719h-2.3125c-1.5417 0-2.6406-0.29688-3.2969-0.89062s-0.98438-1.3698-0.98438-2.3281 0.32812-1.7344 0.98438-2.3281 1.7552-0.89062 3.2969-0.89062l8.4062 0.03125c1.5417 0 2.6406 0.29167 3.2969 0.875s0.98438 1.3542 0.98438 2.3125c0 0.9375-0.32292 1.7083-0.96875 2.3125s-1.6458 0.90625-3 0.90625z"/>
<path id="Shape" d="m189.72 32.438v-25.062h-1c-1.5417 0-2.6406-0.29688-3.2969-0.89062s-0.98438-1.3698-0.98438-2.3281 0.32812-1.7344 0.98438-2.3281 1.7552-0.89062 3.2969-0.89062h16.062c3.8333 0 6.9167 1.0677 9.25 3.2031s3.5 4.6719 3.5 7.6094c0 1.3958-0.27083 2.7083-0.8125 3.9375s-1.3646 2.3646-2.4688 3.4062c2.0208 1.2083 3.5365 2.6198 4.5469 4.2344s1.5156 3.4427 1.5156 5.4844c0 1.625-0.36458 3.1354-1.0938 4.5312-0.54167 1.0625-1.2083 1.9062-2 2.5312-1.0625 0.875-2.3646 1.5885-3.9062 2.1406s-3.4688 0.82812-5.7812 0.82812h-18.812c-1.5417 0-2.6406-0.29688-3.2969-0.89062s-0.98438-1.3698-0.98438-2.3281c0-0.9375 0.33333-1.7031 1-2.2969s1.7604-0.89062 3.2812-0.89062h1zm6.4062-15.75h7.0312c2.5208 0 4.6146-0.63542 6.2812-1.9062 1.125-0.85417 1.6875-1.9167 1.6875-3.1875 0-1.125-0.53125-2.1094-1.5938-2.9531s-2.75-1.2656-5.0625-1.2656h-8.3438v9.3125zm0 15.75h11.062c2.6042 0 4.4375-0.38542 5.5-1.1562 0.8125-0.58333 1.2188-1.4167 1.2188-2.5 0-1.2917-0.80208-2.5625-2.4062-3.8125s-3.9062-1.875-6.9062-1.875h-8.4688v9.3438z"/>
</g>
<g transform="translate(8.0156 12.156)" fill="#000" stroke="#fff" stroke-width="3">
<path id="Path" d="m33.312 27.125v8.5938c-2.8958 1.5625-5.3594 2.6302-7.3906 3.2031s-4.224 0.85938-6.5781 0.85938c-3.2708 0-6.3021-0.48958-9.0938-1.4688-2.1875-0.75-3.9115-1.6979-5.1719-2.8438s-2.4219-2.8385-3.4844-5.0781-1.5938-4.7448-1.5938-7.5156v-4.625c0-4.2708 1.3021-8.0833 3.9062-11.438 3.5-4.5417 8.2604-6.8125 14.281-6.8125 1.75 0 3.4115 0.17708 4.9844 0.53125s3.0677 0.88542 4.4844 1.5938c0.85417-0.77083 1.6875-1.1562 2.5-1.1562 0.9375 0 1.6979 0.32292 2.2812 0.96875s0.875 1.7396 0.875 3.2812v4.1562c0 1.5417-0.29688 2.6406-0.89062 3.2969s-1.3594 0.98438-2.2969 0.98438c-0.75 0-1.3958-0.22917-1.9375-0.6875-0.41667-0.3125-0.76562-1.0052-1.0469-2.0781-0.28125-1.0729-0.59896-1.7969-0.95312-2.1719-0.5625-0.60417-1.5573-1.1406-2.9844-1.6094s-3.026-0.70312-4.7969-0.70312c-2.5417 0-4.75 0.52083-6.625 1.5625-1.3333 0.77083-2.5625 2.1146-3.6875 4.0312s-1.6875 4-1.6875 6.25v4.625c0 3.4375 0.99479 6.0469 2.9844 7.8281 1.9896 1.7812 5.151 2.6719 9.4844 2.6719 2.9375 0 5.6146-0.55208 8.0312-1.6562v-4.5938h-6.5312c-1.5417 0-2.6406-0.29688-3.2969-0.89062s-0.98438-1.3698-0.98438-2.3281 0.32812-1.7344 0.98438-2.3281 1.7552-0.89062 3.2969-0.89062l11.375 0.03125c1.5417 0 2.6406 0.29167 3.2969 0.875s0.98438 1.3542 0.98438 2.3125c0 0.75-0.22396 1.4062-0.67188 1.9688s-1.1302 0.97917-2.0469 1.25z"/>
<path id="b" d="m81.562 19.906c0 5.6875-1.8073 10.422-5.4219 14.203s-7.7969 5.6719-12.547 5.6719c-4.2708 0-8.125-1.5729-11.562-4.7188-4.25-3.8958-6.375-8.9479-6.375-15.156s2.125-11.271 6.375-15.188c3.4375-3.1458 7.2917-4.7188 11.562-4.7188 4.75 0 8.9323 1.8906 12.547 5.6719s5.4219 8.526 5.4219 14.234zm-6.4062 0c0-3.8958-1.1771-7.1198-3.5312-9.6719-2.3542-2.5521-5.0312-3.8281-8.0312-3.8281-2.9792 0-5.6458 1.2812-8 3.8438s-3.5312 5.7812-3.5312 9.6562 1.1771 7.0885 3.5312 9.6406 5.0208 3.8281 8 3.8281c3 0 5.6771-1.2708 8.0312-3.8125s3.5312-5.7604 3.5312-9.6562z"/>
<path id="a" d="m100.62 37.219c-0.5625 0.66667-1.0156 1.0938-1.3594 1.2812s-0.76562 0.28125-1.2656 0.28125c-0.97917 0-1.7656-0.32812-2.3594-0.98438s-0.89062-1.7448-0.89062-3.2656v-4.3125c0-1.5417 0.29688-2.6406 0.89062-3.2969s1.3802-0.98438 2.3594-0.98438c0.75 0 1.3802 0.19792 1.8906 0.59375 0.51042 0.39583 0.90104 1.0573 1.1719 1.9844s0.55208 1.5573 0.84375 1.8906c0.60417 0.64583 1.6771 1.3021 3.2188 1.9688s3.2292 1 5.0625 1c2.8542 0 5.1979-0.66667 7.0312-2 1.1667-0.8125 1.75-1.8125 1.75-3 0-0.79167-0.28125-1.5365-0.84375-2.2344s-1.4792-1.276-2.75-1.7344c-0.83333-0.3125-2.6979-0.73958-5.5938-1.2812-3.5-0.64583-6.1458-1.4271-7.9375-2.3438s-3.2083-2.2083-4.25-3.875-1.5625-3.4688-1.5625-5.4062c0-3.0625 1.2812-5.7448 3.8438-8.0469s5.8958-3.4531 10-3.4531c1.6458 0 3.1719 0.18229 4.5781 0.54688s2.6823 0.92188 3.8281 1.6719c0.83333-0.8125 1.6667-1.2188 2.5-1.2188 0.9375 0 1.7031 0.32812 2.2969 0.98438s0.89062 1.7448 0.89062 3.2656v4.8125c0 1.5417-0.29688 2.6406-0.89062 3.2969s-1.3594 0.98438-2.2969 0.98438c-0.79167 0-1.4792-0.23958-2.0625-0.71875-0.45833-0.35417-0.80208-1.0625-1.0312-2.125s-0.52083-1.8229-0.875-2.2812c-0.60417-0.79167-1.5104-1.4583-2.7188-2s-2.6042-0.8125-4.1875-0.8125c-2.3125 0-4.1406 0.53646-5.4844 1.6094s-2.0156 2.1927-2.0156 3.3594c0 0.79167 0.27604 1.5573 0.82812 2.2969s1.3594 1.3177 2.4219 1.7344c0.70833 0.29167 2.7031 0.76042 5.9844 1.4062s5.8021 1.3542 7.5625 2.125 3.224 1.9792 4.3906 3.625 1.75 3.6042 1.75 5.875c0 3.1667-1.1146 5.6979-3.3438 7.5938-2.9583 2.5-6.7292 3.75-11.312 3.75-1.7708 0-3.4948-0.21354-5.1719-0.64062s-3.3073-1.0677-4.8906-1.9219z"/>
<path d="m171.03 7.375v18.156c0 3.9583-1.4219 7.3229-4.2656 10.094s-6.2656 4.1562-10.266 4.1562c-1.9792 0-3.8385-0.34896-5.5781-1.0469s-3.3021-1.724-4.6875-3.0781-2.4635-2.7656-3.2344-4.2344-1.1562-3.4323-1.1562-5.8906v-18.156c-1.3542 0-2.3542-0.30208-3-0.90625s-0.96875-1.375-0.96875-2.3125c0-0.95833 0.32292-1.7292 0.96875-2.3125s1.75-0.875 3.3125-0.875l8.4062-0.03125c1.5417 0 2.6406 0.29688 3.2969 0.89062s0.98438 1.3698 0.98438 2.3281-0.32812 1.7344-0.98438 2.3281-1.7552 0.89062-3.2969 0.89062h-2.3125v18.719c0 1.9167 0.79688 3.6094 2.3906 5.0781s3.5156 2.2031 5.7656 2.2031c1.5 0 2.9062-0.35417 4.2188-1.0625s2.3854-1.7396 3.2188-3.0938c0.52083-0.85417 0.78125-1.8958 0.78125-3.125v-18.719h-2.3125c-1.5417 0-2.6406-0.29688-3.2969-0.89062s-0.98438-1.3698-0.98438-2.3281 0.32812-1.7344 0.98438-2.3281 1.7552-0.89062 3.2969-0.89062l8.4062 0.03125c1.5417 0 2.6406 0.29167 3.2969 0.875s0.98438 1.3542 0.98438 2.3125c0 0.9375-0.32292 1.7083-0.96875 2.3125s-1.6458 0.90625-3 0.90625z"/>
<path d="m189.72 32.438v-25.062h-1c-1.5417 0-2.6406-0.29688-3.2969-0.89062s-0.98438-1.3698-0.98438-2.3281 0.32812-1.7344 0.98438-2.3281 1.7552-0.89062 3.2969-0.89062h16.062c3.8333 0 6.9167 1.0677 9.25 3.2031s3.5 4.6719 3.5 7.6094c0 1.3958-0.27083 2.7083-0.8125 3.9375s-1.3646 2.3646-2.4688 3.4062c2.0208 1.2083 3.5365 2.6198 4.5469 4.2344s1.5156 3.4427 1.5156 5.4844c0 1.625-0.36458 3.1354-1.0938 4.5312-0.54167 1.0625-1.2083 1.9062-2 2.5312-1.0625 0.875-2.3646 1.5885-3.9062 2.1406s-3.4688 0.82812-5.7812 0.82812h-18.812c-1.5417 0-2.6406-0.29688-3.2969-0.89062s-0.98438-1.3698-0.98438-2.3281c0-0.9375 0.33333-1.7031 1-2.2969s1.7604-0.89062 3.2812-0.89062h1zm6.4062-15.75h7.0312c2.5208 0 4.6146-0.63542 6.2812-1.9062 1.125-0.85417 1.6875-1.9167 1.6875-3.1875 0-1.125-0.53125-2.1094-1.5938-2.9531s-2.75-1.2656-5.0625-1.2656h-8.3438v9.3125zm0 15.75h11.062c2.6042 0 4.4375-0.38542 5.5-1.1562 0.8125-0.58333 1.2188-1.4167 1.2188-2.5 0-1.2917-0.80208-2.5625-2.4062-3.8125s-3.9062-1.875-6.9062-1.875h-8.4688v9.3438z"/>
</g>
</g>
</svg>
