<?xml version="1.0" encoding="UTF-8"?>
<svg version="1.1" width="236px" height="64px" viewBox="0 0 236 64" xmlns="http://www.w3.org/2000/svg">
<title>utf64</title>
<g stroke="#000">
<g transform="translate(6.028 5.384)">
<path id="Path" d="m13.604 15.268v21.812c0 1.1858 0.28562 2.1093 0.90349 2.7485 0.60802 0.62899 1.4412 0.92751 2.4845 0.92751 0.72189 0 1.6227-0.2105 2.7044-0.61616 1.035-0.38811 2.0308-0.79575 2.9876-1.223v-23.649h14.104v35.848h-7.2703l-2.6207-2.8275c-1.4453 0.77394-3.2527 1.6309-5.4224 2.5704-2.3867 1.0334-5.0804 1.5532-8.0827 1.5532-5.1562 0-8.7398-1.4798-10.809-4.3474-2.048-2.8376-3.0826-6.4006-3.0826-10.697v-22.1h14.104z"/>
<path id="Path" d="m61.332 5.3306v11.305h8.3681l1.3429 11.296h-9.711v8.14c0 1.2862 0.36039 2.3133 1.1136 3.0664 0.75667 0.75667 1.8337 1.1136 3.2104 1.1136 0.59533 0 1.3506-0.10578 2.2662-0.3118 1.1022-0.248 2.1044-0.67931 3.0059-1.2955l4.1058 9.7908c-0.86653 0.89496-2.4099 1.7289-4.6478 2.4749-2.0005 0.66685-3.8655 0.99766-5.5941 0.99766-4.5689 0-8.6207-1.1822-12.157-3.54-3.5937-2.3958-5.4066-6.0083-5.4066-10.856v-9.58h-5.4v-11.296h5.4v-9.368l14.104-1.9374z"/>
<path id="Path" d="m100.42-0.5c1.7286 0 3.5936 0.33081 5.5941 0.99766 2.2379 0.74598 3.7813 1.5799 4.6478 2.4749l-4.1058 9.7908c-0.9015-0.61622-1.9037-1.0475-3.0059-1.2955-0.91565-0.20602-1.6709-0.3118-2.2662-0.3118-1.3768 0-2.4538 0.35688-3.2104 1.1136-0.75316 0.75316-1.1136 1.7803-1.1136 3.0664v2.308h9.5921l1.3429 11.296h-10.935v22.176h-14.104v-22.176h-5.76v-11.296h5.76v-3.748c0-4.8477 1.8129-8.4602 5.4066-10.856 3.5367-2.3578 7.5884-3.54 12.157-3.54z"/>
<path id="Path" d="m134.28 25.276 0.78993 11.296h-21.231l-0.86892-11.296h21.31z"/>
<path id="Shape" d="m165.77 4.3316 6.8024 9.9663c-2.0653 0.39739-4.6531 1.3985-7.7664 2.995-2.0166 1.0342-3.7997 2.2829-5.348 3.747 0.29284-0.10144 0.58465-0.1947 0.87543-0.27981 1.0396-0.30428 1.9148-0.45213 2.6244-0.45213 5.0254 0 9.234 1.4241 12.632 4.2559 3.4351 2.8626 5.1479 6.4361 5.1479 10.716 0 4.353-1.6745 8.2401-5.0399 11.655-3.3532 3.4025-7.8119 5.117-13.388 5.117-6.1751 0-11.366-1.7227-15.58-5.1522-4.2339-3.4462-6.3764-8.6061-6.3764-15.508 0-5.8268 2.3736-11.366 7.1504-16.609 4.8209-5.2907 10.909-8.776 18.266-10.452zm-4.7561 26.12c-1.0691 0-2.1471 0.32905-3.2373 0.97429-1.0487 0.62063-1.9293 1.3096-2.6398 2.0696 0.37866 2.3358 1.1672 4.0877 2.4014 5.2338 1.2448 1.1559 2.6662 1.7384 4.2678 1.7384 1.4428 0 2.5365-0.5046 3.2612-1.549 0.75203-1.0838 1.1348-2.1995 1.1348-3.351 0-1.4523-0.42255-2.677-1.2818-3.6685-0.85344-0.98475-2.1662-1.4475-3.9062-1.4475z"/>
<path id="Shape" d="m219.97 9.004v26.928h7.2325l-0.71094 11.296h-6.5215v8.424h-14.104v-8.424h-19.943l-1.6158-10.233 25.148-27.991h10.515zm-14.104 21.588-4.5388 5.3397h4.5388v-5.3397z"/>
</g>
<g transform="translate(4.028 3.384)" fill="#fff">
<path id="Path" d="m13.604 15.268v21.812c0 1.1858 0.28562 2.1093 0.90349 2.7485 0.60802 0.62899 1.4412 0.92751 2.4845 0.92751 0.72189 0 1.6227-0.2105 2.7044-0.61616 1.035-0.38811 2.0308-0.79575 2.9876-1.223v-23.649h14.104v35.848h-7.2703l-2.6207-2.8275c-1.4453 0.77394-3.2527 1.6309-5.4224 2.5704-2.3867 1.0334-5.0804 1.5532-8.0827 1.5532-5.1562 0-8.7398-1.4798-10.809-4.3474-2.048-2.8376-3.0826-6.4006-3.0826-10.697v-22.1h14.104z"/>
<path id="Path" d="m61.332 5.3306v11.305h8.3681l1.3429 11.296h-9.711v8.14c0 1.2862 0.36039 2.3133 1.1136 3.0664 0.75667 0.75667 1.8337 1.1136 3.2104 1.1136 0.59533 0 1.3506-0.10578 2.2662-0.3118 1.1022-0.248 2.1044-0.67931 3.0059-1.2955l4.1058 9.7908c-0.86653 0.89496-2.4099 1.7289-4.6478 2.4749-2.0005 0.66685-3.8655 0.99766-5.5941 0.99766-4.5689 0-8.6207-1.1822-12.157-3.54-3.5937-2.3958-5.4066-6.0083-5.4066-10.856v-9.58h-5.4v-11.296h5.4v-9.368l14.104-1.9374z"/>
<path id="b" d="m100.42-0.5c1.7286 0 3.5936 0.33081 5.5941 0.99766 2.2379 0.74598 3.7813 1.5799 4.6478 2.4749l-4.1058 9.7908c-0.9015-0.61622-1.9037-1.0475-3.0059-1.2955-0.91565-0.20602-1.6709-0.3118-2.2662-0.3118-1.3768 0-2.4538 0.35688-3.2104 1.1136-0.75316 0.75316-1.1136 1.7803-1.1136 3.0664v2.308h9.5921l1.3429 11.296h-10.935v22.176h-14.104v-22.176h-5.76v-11.296h5.76v-3.748c0-4.8477 1.8129-8.4602 5.4066-10.856 3.5367-2.3578 7.5884-3.54 12.157-3.54z"/>
<path d="m134.28 25.276 0.78993 11.296h-21.231l-0.86892-11.296h21.31z"/>
<path id="a" d="m165.77 4.3316 6.8024 9.9663c-2.0653 0.39739-4.6531 1.3985-7.7664 2.995-2.0166 1.0342-3.7997 2.2829-5.348 3.747 0.29284-0.10144 0.58465-0.1947 0.87543-0.27981 1.0396-0.30428 1.9148-0.45213 2.6244-0.45213 5.0254 0 9.234 1.4241 12.632 4.2559 3.4351 2.8626 5.1479 6.4361 5.1479 10.716 0 4.353-1.6745 8.2401-5.0399 11.655-3.3532 3.4025-7.8119 5.117-13.388 5.117-6.1751 0-11.366-1.7227-15.58-5.1522-4.2339-3.4462-6.3764-8.6061-6.3764-15.508 0-5.8268 2.3736-11.366 7.1504-16.609 4.8209-5.2907 10.909-8.776 18.266-10.452zm-4.7561 26.12c-1.0691 0-2.1471 0.32905-3.2373 0.97429-1.0487 0.62063-1.9293 1.3096-2.6398 2.0696 0.37866 2.3358 1.1672 4.0877 2.4014 5.2338 1.2448 1.1559 2.6662 1.7384 4.2678 1.7384 1.4428 0 2.5365-0.5046 3.2612-1.549 0.75203-1.0838 1.1348-2.1995 1.1348-3.351 0-1.4523-0.42255-2.677-1.2818-3.6685-0.85344-0.98475-2.1662-1.4475-3.9062-1.4475z"/>
<path d="m219.97 9.004v26.928h7.2325l-0.71094 11.296h-6.5215v8.424h-14.104v-8.424h-19.943l-1.6158-10.233 25.148-27.991h10.515zm-14.104 21.588-4.5388 5.3397h4.5388v-5.3397z"/>
</g>
</g>
</svg>
